<svg xmlns="http://www.w3.org/2000/svg" xmlns:xlink="http://www.w3.org/1999/xlink" id="chatIcon" width="29.1" height="25.681" x="0" y="0" enable-background="new 0 0 29.1 25.681" version="1.1" viewBox="0 0 29.1 25.681" xml:space="preserve"><path d="M26.74,1.091H2.361c-0.621,0-1.126,0.504-1.126,1.126v17.116c0,0.621,0.504,1.126,1.126,1.126h13.516l5.184,3.873	c0.7,0.523,1.272,0.236,1.272-0.638v-3.236h4.406c0.621,0,1.126-0.504,1.126-1.126V2.216C27.865,1.595,27.361,1.091,26.74,1.091z M8.409,12.382c-0.962,0-1.741-0.78-1.741-1.741c0-0.962,0.78-1.741,1.741-1.741s1.741,0.78,1.741,1.741	C10.149,11.602,9.37,12.382,8.409,12.382z M14.551,12.382c-0.962,0-1.741-0.78-1.741-1.741c0-0.962,0.78-1.741,1.741-1.741	s1.741,0.78,1.741,1.741C16.292,11.602,15.513,12.382,14.551,12.382z M20.693,12.382c-0.962,0-1.741-0.78-1.741-1.741	c0-0.962,0.78-1.741,1.741-1.741s1.741,0.78,1.741,1.741C22.434,11.602,21.655,12.382,20.693,12.382z"/></svg>