<svg xmlns="http://www.w3.org/2000/svg" xmlns:xlink="http://www.w3.org/1999/xlink" id="creditsIcon" width="26" height="26" x="0" y="0" enable-background="new 0 0 26 26" version="1.1" viewBox="0 0 26 26" xml:space="preserve"><path d="M23,26H3c-1.103,0-2-0.897-2-2V2c0-1.103,0.897-2,2-2h20c1.103,0,2,0.897,2,2v22C25,25.103,24.103,26,23,26z M23,24v1V24L23,24z M3,2v22h19.998L23,2H3z"/><rect width="2" height="2" x="6" y="7"/><rect width="10" height="2" x="10" y="7"/><rect width="10" height="2" x="10" y="12"/><rect width="10" height="2" x="10" y="17"/><rect width="2" height="2" x="6" y="12"/><rect width="2" height="2" x="6" y="17"/></svg>