<svg xmlns="http://www.w3.org/2000/svg" xmlns:svg="http://www.w3.org/2000/svg" id="user" width="682.67" height="512" x="0" y="0" version="1.1" viewBox="0 0 682.67 512" xml:space="preserve"><metadata id="metadata15"/><rect id="rect5" width="682.67" height="512" x="0" y="0" style="fill:#000"/><g id="g3" transform="translate(85.33,0)"><path style="fill:#93b5ff" id="path7" d="m 256.001,268.089 c 50.664,0 91.74,-48.075 91.74,-107.378 0,-82.237 -41.074,-107.377 -91.74,-107.377 -50.668,0 -91.74,25.14 -91.74,107.377 0,59.303 41.072,107.378 91.74,107.378 z"/><path style="fill:#93b5ff" id="path9" d="M 458.581,426.135 412.298,321.872 c -2.117,-4.771 -5.836,-8.727 -10.465,-11.138 l -71.83,-37.391 c -1.584,-0.824 -3.502,-0.663 -4.926,0.415 -20.316,15.366 -44.203,23.488 -69.076,23.488 -24.877,0 -48.762,-8.122 -69.078,-23.488 -1.428,-1.079 -3.346,-1.239 -4.93,-0.415 l -71.826,37.391 c -4.631,2.411 -8.346,6.366 -10.465,11.138 L 53.419,426.135 c -3.191,7.188 -2.537,15.412 1.75,22.005 4.285,6.591 11.537,10.526 19.4,10.526 H 437.43 c 7.863,0 15.117,-3.936 19.402,-10.527 4.284,-6.592 4.94,-14.819 1.749,-22.004 z"/></g></svg>